<?xml version="1.0" encoding="UTF-8" standalone="no"?>
<!-- Created with Inkscape (http://www.inkscape.org/) -->

<svg
   width="512"
   height="512"
   viewBox="0 0 512 512"
   version="1.1"
   id="svg1"
   inkscape:version="1.4.3 (0d15f75042, 2025-12-25)"
   sodipodi:docname="3fs_white.svg"
   xmlns:inkscape="http://www.inkscape.org/namespaces/inkscape"
   xmlns:sodipodi="http://sodipodi.sourceforge.net/DTD/sodipodi-0.dtd"
   xmlns="http://www.w3.org/2000/svg"
   xmlns:svg="http://www.w3.org/2000/svg">
  <sodipodi:namedview
     id="namedview1"
     pagecolor="#505050"
     bordercolor="#eeeeee"
     borderopacity="1"
     inkscape:showpageshadow="0"
     inkscape:pageopacity="0"
     inkscape:pagecheckerboard="0"
     inkscape:deskcolor="#505050"
     inkscape:document-units="px"
     inkscape:zoom="1.1005859"
     inkscape:cx="21.352263"
     inkscape:cy="184.90151"
     inkscape:window-width="2055"
     inkscape:window-height="1384"
     inkscape:window-x="0"
     inkscape:window-y="0"
     inkscape:window-maximized="1"
     inkscape:current-layer="layer1" />
  <defs
     id="defs1" />
  <g
     inkscape:label="Layer 1"
     inkscape:groupmode="layer"
     id="layer1">
    <path
       d="m 98.810084,331.30641 -73.086451,-73.08643 21.925929,-21.92593 36.543232,36.54321 c -2.088187,-9.39683 -3.654327,-18.79365 -4.69842,-28.19048 -1.044087,-9.39683 -1.56613,-18.79365 -1.56613,-28.19048 0,-28.53851 4.698413,-56.20695 14.09524,-83.00531 9.396826,-26.79836 22.970016,-51.334531 40.719586,-73.6085 l 22.44797,22.447983 c -14.96531,19.489727 -26.36332,40.632587 -34.19401,63.428597 -7.83069,22.79601 -11.74604,46.37508 -11.74604,70.73723 0,9.0488 0.52204,18.01059 1.56613,26.88537 1.04411,8.87478 2.78426,17.66255 5.22047,26.36331 l 33.93299,-33.41093 21.92593,21.92593 z M 348.34806,452.94313 c -8.00471,2.78425 -16.09641,4.08937 -24.27512,3.91536 -8.17873,-0.17402 -16.09643,-2.1752 -23.75311,-6.00354 l -136.77605,-63.68962 9.39684,-20.88184 c 3.48029,-6.96061 8.35272,-12.6161 14.61728,-16.96649 6.26455,-4.35038 13.22516,-6.8736 20.88184,-7.56966 l 35.49913,-2.61025 -58.46917,-160.26811 c -2.08817,-5.56849 -1.91416,-10.87596 0.52205,-15.9224 2.43622,-5.04645 6.43857,-8.61376 12.00706,-10.70193 5.56849,-2.08819 10.87596,-1.91418 15.92242,0.52204 5.04644,2.43621 8.61375,6.43856 10.70193,12.00705 l 77.26281,212.47272 -52.20459,3.65431 68.38802,31.84482 c 2.43621,1.04409 5.04644,1.65314 7.83069,1.82715 2.78425,0.17402 5.39448,-0.087 7.83069,-0.78306 L 415.692,384.03306 c 10.78895,-3.82834 18.61964,-11.04998 23.49209,-21.66491 4.87243,-10.61494 5.39447,-21.31688 1.56613,-32.10583 l -28.71253,-78.3069 c -2.08819,-5.56849 -1.91417,-10.87595 0.52205,-15.92239 2.43621,-5.04645 6.43855,-8.61376 12.00704,-10.70195 5.5685,-2.08818 10.87597,-1.91417 15.92242,0.52204 5.04644,2.43622 8.61375,6.43857 10.70193,12.00706 l 28.71253,78.3069 c 8.00471,21.92593 7.22164,43.24281 -2.3492,63.95063 -9.57085,20.70783 -25.31924,35.0641 -47.24517,43.06881 z"
       id="path1"
       style="stroke-width:0.522047;fill:#ffffff"
       sodipodi:nodetypes="ccccsssccssscccccscccscccsssccccsccsccsssccscc" />
    <path
       d="M 301.92636,315.22604 247.1933,166.88859 c -2.08819,-5.56849 -1.91417,-10.87595 0.52205,-15.92239 2.43621,-5.04645 6.43855,-8.61376 12.00704,-10.70195 5.5685,-2.08818 10.87597,-1.91417 15.92242,0.52204 5.04644,2.43622 8.61375,6.43857 10.70193,12.00706 l 54.41182,150.2649"
       style="stroke-width:0.522047;fill:#ffffff"
       id="path1-2"
       sodipodi:nodetypes="ccssscc" />
    <path
       d="M 361.97157,298.38646 307.23851,150.04901 c -2.08819,-5.56849 -1.91417,-10.87595 0.52205,-15.92239 2.43621,-5.04645 6.43855,-8.61376 12.00704,-10.70195 5.5685,-2.08818 10.87597,-1.91417 15.92242,0.52204 5.04644,2.43622 8.61375,6.43857 10.70193,12.00706 l 54.41182,150.2649"
       style="stroke-width:0.522047;fill:#ffffff"
       id="path1-2-2"
       sodipodi:nodetypes="ccssscc" />
  </g>
</svg>
